<svg xmlns="http://www.w3.org/2000/svg" fill="none" viewBox="0 0 1356 401" height="401" width="1356">
<path fill="url(#paint0_linear_56_48)" d="M606.353 339.688C583.701 339.688 563.372 334.316 545.367 323.57C527.652 312.825 513.712 297.869 503.547 278.702C493.673 259.535 488.736 237.899 488.736 213.795C488.736 190.271 493.673 169.071 503.547 150.195C513.712 131.318 527.652 116.652 545.367 106.197C563.372 95.4519 583.701 90.0793 606.353 90.0793C629.005 90.0793 649.334 95.4519 667.34 106.197C685.345 116.652 699.43 131.318 709.594 150.195C719.759 169.071 724.841 190.271 724.841 213.795C724.841 237.899 719.759 259.535 709.594 278.702C699.72 297.578 685.781 312.535 667.775 323.57C649.77 334.316 629.296 339.688 606.353 339.688ZM606.353 307.017C621.454 307.017 635.104 302.951 647.301 294.82C659.789 286.688 669.518 275.652 676.488 261.713C683.748 247.482 687.378 231.51 687.378 213.795C687.378 196.951 683.893 181.559 676.923 167.619C669.953 153.679 660.224 142.789 647.737 134.948C635.539 126.816 621.745 122.751 606.353 122.751C591.252 122.751 577.457 126.671 564.969 134.512C552.772 142.353 543.189 153.244 536.219 167.184C529.249 181.123 525.764 196.66 525.764 213.795C525.764 231.51 529.249 247.482 536.219 261.713C543.189 275.943 552.772 287.124 564.969 295.255C577.457 303.096 591.252 307.017 606.353 307.017Z"></path>
<path fill="url(#paint1_linear_56_48)" d="M750.835 94.4355H787.863V110.118C787.863 114.183 787.427 117.668 786.556 120.573C785.975 123.186 784.668 125.8 782.635 128.414L788.734 132.334C798.608 117.523 809.498 106.778 821.405 100.099C833.603 93.419 848.704 90.0793 866.709 90.0793H868.452V127.107H855.819C836.361 127.107 820.824 132.915 809.208 144.531C794.978 158.181 787.863 179.526 787.863 208.567V335.332H750.835V94.4355Z"></path>
<path fill="url(#paint2_linear_56_48)" d="M999.26 339.688C981.545 339.688 966.879 336.494 955.262 330.105C943.936 323.715 932.61 312.825 921.284 297.433L915.186 301.354C917.218 303.968 918.525 306.726 919.106 309.631C919.977 312.244 920.413 315.584 920.413 319.65V335.332H883.385V2.95581H920.413V110.118C920.413 114.183 919.977 117.668 919.106 120.573C918.525 123.186 917.218 125.8 915.186 128.414L921.284 132.334C932.61 116.942 943.936 106.052 955.262 99.6629C966.879 93.2738 981.545 90.0793 999.26 90.0793C1020.75 90.0793 1039.48 95.3067 1055.45 105.762C1071.72 116.216 1084.21 131.027 1092.92 150.195C1101.92 169.071 1106.42 190.707 1106.42 215.102C1106.42 239.496 1101.92 261.132 1092.92 280.009C1084.21 298.885 1071.72 313.551 1055.45 324.006C1039.19 334.461 1020.46 339.688 999.26 339.688ZM995.775 307.017C1010.59 307.017 1023.51 303.096 1034.54 295.255C1045.87 287.124 1054.44 276.088 1060.25 262.148C1066.34 248.208 1069.39 232.526 1069.39 215.102C1069.39 197.386 1066.34 181.559 1060.25 167.619C1054.44 153.679 1045.87 142.789 1034.54 134.948C1023.51 126.816 1010.59 122.751 995.775 122.751C980.964 122.751 967.75 126.816 956.134 134.948C944.517 142.789 935.369 153.679 928.69 167.619C922.301 181.559 919.106 197.386 919.106 215.102C919.106 232.526 922.301 248.354 928.69 262.584C935.369 276.524 944.517 287.414 956.134 295.255C967.75 303.096 980.964 307.017 995.775 307.017Z"></path>
<path fill="url(#paint3_linear_56_48)" d="M1240.06 339.688C1217.41 339.688 1197.08 334.316 1179.08 323.57C1161.36 312.825 1147.57 298.014 1137.69 279.137C1127.82 260.261 1122.88 239.061 1122.88 215.537C1122.88 193.175 1127.53 172.556 1136.82 153.679C1146.12 134.512 1159.48 119.12 1176.9 107.504C1194.61 95.8876 1215.38 90.0793 1239.19 90.0793C1259.81 90.0793 1278.98 94.7259 1296.69 104.019C1314.41 113.312 1328.64 126.962 1339.39 144.967C1350.13 162.682 1355.5 184.028 1355.5 209.003V222.071H1183.43C1181.4 222.071 1177.34 222.071 1171.24 222.071C1165.43 222.071 1160.06 221.781 1155.12 221.2L1153.81 228.17C1156.43 228.751 1158.17 229.767 1159.04 231.219C1160.2 232.381 1161.07 234.559 1161.65 237.754C1162.52 240.658 1163.4 243.417 1164.27 246.03C1170.37 264.617 1180.09 279.428 1193.45 290.463C1207.1 301.499 1222.49 307.017 1239.63 307.017C1257.05 307.017 1272.01 302.37 1284.5 293.077C1296.99 283.784 1305.99 272.022 1311.51 257.792H1351.15C1343.31 282.187 1329.95 301.935 1311.07 317.036C1292.19 332.137 1268.52 339.688 1240.06 339.688ZM1162.52 197.677C1165.72 194.773 1168.91 192.74 1172.11 191.578C1175.59 190.126 1179.8 189.4 1184.74 189.4H1292.77C1298.29 189.4 1302.94 190.126 1306.71 191.578C1310.49 192.74 1314.12 194.773 1317.6 197.677L1322.4 192.449C1319.49 190.417 1317.6 188.674 1316.73 187.222C1316.15 185.48 1315.57 183.301 1314.99 180.688C1314.12 175.46 1312.67 170.523 1310.63 165.877C1304.54 152.227 1295.1 141.627 1282.32 134.077C1269.83 126.526 1255.75 122.751 1240.06 122.751C1224.09 122.751 1210.01 126.526 1197.81 134.077C1185.9 141.627 1176.61 152.227 1169.93 165.877C1167.32 171.395 1165.72 176.332 1165.14 180.688C1164.85 183.301 1164.27 185.334 1163.4 186.786C1162.52 188.238 1160.64 190.126 1157.73 192.449L1162.52 197.677Z"></path>
<rect fill="url(#paint4_linear_56_48)" rx="16" height="400" width="400" y="1"></rect>
<path fill="white" d="M278.246 101.969L265.879 101.916V89.8889H311.111V135.123H299.084V110.414L274.69 134.809C261.304 148.196 250.192 159.178 250.061 159.178C249.905 159.178 247.969 157.348 245.747 155.125L241.721 151.099L290.587 102.047L278.246 101.969Z"></path>
<path fill="white" d="M130.445 114.363C148.094 100.296 169.193 91.9547 191.626 90.1768C195.626 89.863 203.758 89.863 207.836 90.1506C218.294 90.935 230.008 93.4713 238.818 96.8704L241.433 97.89L241.512 105.499L241.564 113.134L239.42 112.14C235.943 110.545 231.21 108.819 226.765 107.538C224.517 106.885 222.504 106.362 222.321 106.362C222.138 106.362 222.975 108.27 224.308 110.859C234.139 129.972 240.231 158.106 241.46 189.822L241.643 194.477H297.045L296.862 192.567C295.868 181.847 292.888 170.316 288.861 161.584L287.868 159.439H303.137L304.522 163.257C308.915 175.415 311.111 188.149 311.111 201.458C311.111 234.821 295.476 267.112 269.174 287.951C245.12 307.012 215.209 315.196 184.697 311.065C144.302 305.574 109.843 277.806 95.6455 239.292C89.2137 221.826 87.3313 202.686 90.1811 184.018C93.0833 164.904 101.084 146.837 113.555 131.201C117.006 126.887 126.001 117.892 130.445 114.363ZM208.856 111.852C206.764 108.715 203.522 105.29 201.744 104.401C200.097 103.59 199.888 103.59 198.214 104.427C196.489 105.29 193.299 108.663 191.129 111.879C186.71 118.546 182.371 129.162 179.337 140.719C175.442 155.648 173.272 171.18 172.383 190.737L172.226 194.477H227.707V193.614C227.707 191.574 227.158 182.161 226.765 177.612C224.517 150.131 217.771 125.397 208.856 111.852ZM177.063 108.244C177.586 107.329 178.03 106.545 178.03 106.466C178.03 106.205 176.906 106.466 173.193 107.538C156.695 112.349 142.446 120.899 130.419 133.188C114.627 149.399 105.215 169.82 103.123 192.567L102.94 194.477H158.343L158.526 189.822C159.519 163.911 163.833 140.039 170.892 121.527C172.409 117.526 175.442 110.99 177.063 108.244ZM171.416 281.807C164.278 263.765 159.937 240.913 158.656 214.74L158.343 208.334H102.992L103.149 209.824C104.744 225.277 109.215 238.795 116.902 251.45C128.746 271.008 147.44 285.99 168.984 293.181C172.827 294.462 177.743 295.769 177.952 295.586C178.004 295.507 177.769 294.984 177.429 294.409C176.069 292.292 173.063 285.964 171.416 281.807ZM227.625 210.509C227.674 209.479 227.707 208.792 227.707 208.7C227.707 208.386 223.105 208.334 199.966 208.334H172.252L172.409 211.786C173.873 242.586 179.102 267.19 187.835 284.422C191.443 291.481 195.705 296.711 198.868 297.913C199.914 298.331 200.071 298.331 201.117 297.913C204.385 296.684 208.829 291.141 212.49 283.767C220.726 267.216 226.033 242.534 227.445 214.374C227.51 212.911 227.576 211.538 227.625 210.509ZM280.652 255.267C289.907 241.436 295.058 227.003 296.836 209.824L296.993 208.334H241.643L241.46 212.57C240.335 239.135 235.916 263.086 228.726 281.415C227.184 285.389 223.916 292.266 222.661 294.305C222.269 294.906 221.955 295.455 221.955 295.533C221.955 295.821 222.844 295.638 226.765 294.488C248.78 288.186 267.971 274.198 280.652 255.267Z" clip-rule="evenodd" fill-rule="evenodd"></path>
<defs>
<linearGradient gradientUnits="userSpaceOnUse" y2="473.233" x2="1476.69" y1="-130.958" x1="1615.93" id="paint0_linear_56_48">
<stop stop-color="#89043D" offset="0.221525"></stop>
<stop stop-color="#264C51" offset="1"></stop>
</linearGradient>
<linearGradient gradientUnits="userSpaceOnUse" y2="473.233" x2="1476.69" y1="-130.958" x1="1615.93" id="paint1_linear_56_48">
<stop stop-color="#89043D" offset="0.221525"></stop>
<stop stop-color="#264C51" offset="1"></stop>
</linearGradient>
<linearGradient gradientUnits="userSpaceOnUse" y2="473.233" x2="1476.69" y1="-130.958" x1="1615.93" id="paint2_linear_56_48">
<stop stop-color="#89043D" offset="0.221525"></stop>
<stop stop-color="#264C51" offset="1"></stop>
</linearGradient>
<linearGradient gradientUnits="userSpaceOnUse" y2="473.233" x2="1476.69" y1="-130.958" x1="1615.93" id="paint3_linear_56_48">
<stop stop-color="#89043D" offset="0.221525"></stop>
<stop stop-color="#264C51" offset="1"></stop>
</linearGradient>
<linearGradient gradientUnits="userSpaceOnUse" y2="401" x2="188.519" y1="-158.074" x1="520.185" id="paint4_linear_56_48">
<stop stop-color="#89043D" offset="0.221525"></stop>
<stop stop-color="#264C51" offset="1"></stop>
</linearGradient>
</defs>
</svg>
